# xmcd
#
# Track frame offsets:
# 150
# 17394
# 36500
# 51630
# 65151
# 80915
# 95444
# 111708
# 134532
# 152553
# 172166
# 189799
# 204242
# 221383
# 245478
# 269246
# 283994
# 304467
# 322372
# 338675
#
# Disc length: 4723 seconds
#
#
# Revision: 1
# Processed by: cddbd v1.5.2PL0 Copyright (c) Steve Scherf et al.
# Submitted via: FreeRIP 2.90 
#
DISCID=49127114
DTITLE=Fernando e Soracaba - Bala De Prata (Ao Vivo)
DYEAR=2008
DGENRE=Sertanejo
TTITLE0=Bala De Prata
TTITLE1=Vem Ficar Do Meu Lado
TTITLE2=Ah, Como Eu Amo Você
TTITLE3=Chorei Largado
TTITLE4=Juliana
TTITLE5=Aqui a Tristeza Pula De Alegria
TTITLE6=Ouro e Diamante
TTITLE7=Noite Enluarada
TTITLE8=Sonhos
TTITLE9=Volta Lá Pro Seu Lugar
TTITLE10=Rei e Rainha
TTITLE11=Procurando Amor
TTITLE12=O Amor
TTITLE13=Take Me Home, Country Roads - Dixieland Delight
TTITLE14=Não Sei Como Viver - Luz Da Minha Vida
TTITLE15=Do Inferno Ao Paraíso
TTITLE16=Companheiro
TTITLE17=Só Não Muda
TTITLE18=Minha Paixão é a Estrada
TTITLE19=Mulher Do Paraná
EXTD=
EXTT0=
EXTT1=
EXTT2=
EXTT3=
EXTT4=
EXTT5=
EXTT6=
EXTT7=
EXTT8=
EXTT9=
EXTT10=
EXTT11=
EXTT12=
EXTT13=
EXTT14=
EXTT15=
EXTT16=
EXTT17=
EXTT18=
EXTT19=
PLAYORDER=
